<svg width="1300" height="444" viewBox="0 0 1300 444" fill="none" xmlns="http://www.w3.org/2000/svg">
<path fill-rule="evenodd" clip-rule="evenodd" d="M652.937 143.494V322.167C652.937 332.626 655.57 343.086 662.146 351.755H576.104C582.68 343.086 585.314 332.626 585.314 322.167V143.494C585.314 133.027 582.688 122.568 576.104 113.898H662.146C655.57 122.568 652.937 133.027 652.937 143.494V143.494ZM781.155 365.225V143.494C781.155 133.027 783.796 122.568 790.372 113.898H704.323C710.899 122.568 713.525 133.027 713.525 143.494V400.027C713.814 409.407 711.069 435.044 689.093 437.789V443.277C732.136 440.54 781.607 414.895 781.155 365.225V365.225ZM446.791 331.546C446.255 328.448 445.973 325.311 445.948 322.167V232.627H502.253C513.704 232.627 520.117 234.461 525.154 237.672L522.403 212.485H445.948V143.494C445.948 138.723 446.584 133.966 447.797 129.358H531.567C543.01 129.358 549.431 131.192 554.461 134.403L551.709 113.795H440.429L440.466 113.898H362.702C369.278 122.568 371.911 133.027 371.911 143.494V322.167C371.911 332.626 369.286 343.086 362.702 351.755H455.157C455.142 351.74 455.135 351.71 455.112 351.696H547.589L551.258 328.336C543.928 330.636 533.853 331.546 527.44 331.546H446.791ZM912.067 331.546C911.537 328.447 911.258 325.311 911.231 322.167V232.627H967.529C978.987 232.627 985.385 234.461 990.43 237.672L987.686 212.485H911.231V143.494C911.231 138.723 911.852 133.966 913.08 129.358H996.843C1008.29 129.358 1014.7 131.192 1019.74 134.403L1017 113.795H905.713L905.757 113.898H827.971C834.561 122.568 837.187 133.027 837.187 143.494V322.167C837.187 332.626 834.561 343.086 827.971 351.755H920.433L920.388 351.696H1012.87L1016.53 328.336C1009.21 330.636 999.121 331.546 992.723 331.546H912.067V331.546ZM325.962 143.494C325.962 133.027 328.595 122.568 335.171 113.898H279.413L279.464 113.795H242.827L242.775 113.898H242.716C242.73 113.916 242.741 113.936 242.746 113.957L164.286 275.684L91.9293 113.565H10.4149L10.5629 113.898H0C6.58329 122.568 9.20921 133.027 9.20921 143.494V322.167C9.20921 332.626 6.58329 343.086 0 351.755H39.337C32.7611 343.086 30.1278 332.626 30.1278 322.167V158.916L113.913 351.696H161.542L251.925 169.346V322.167C251.925 332.626 249.3 343.086 242.716 351.755H335.171C328.595 343.086 325.962 332.626 325.962 322.167V143.494V143.494ZM663.455 0H722.978C733.97 0 747.714 8.24019 753.202 18.3222L784.351 76.0259H726.647C712.001 76.0259 700.077 70.5299 694.589 59.5381L663.455 0V0ZM539.8 0H599.338C610.33 0 624.066 8.24019 629.562 18.3222L660.696 76.0259H603C588.346 76.0259 576.437 70.5299 570.941 59.5381L539.8 0V0ZM1122.79 143.494C1122.79 141.141 1122.98 138.789 1123.25 136.459H1152.53C1180.01 136.459 1190.1 155.699 1190.1 172.179C1190.1 188.659 1184.59 211.56 1157.11 211.56H1122.77L1122.79 143.494ZM1122.78 239.04H1143.38C1151.62 239.04 1158.04 240.874 1161.7 250.032L1207.49 351.696H1300C1290.84 343.448 1280.77 332.464 1273.44 315.968L1250.54 261.024C1245.04 245.453 1234.06 228.041 1216.65 226.206C1242.3 218.883 1261.52 193.238 1260.61 169.427C1259.7 145.616 1236.8 114.475 1191.01 113.795H1103.99L1104 113.898H1039.54C1046.11 122.568 1048.74 133.027 1048.74 143.494V322.167C1048.74 332.626 1046.11 343.086 1039.54 351.755H1132C1125.41 343.086 1122.78 332.626 1122.78 322.167L1122.78 239.04V239.04Z" fill="#5C607C"/>
</svg>
