<svg width="1300" height="293" viewBox="0 0 1300 293" fill="none" xmlns="http://www.w3.org/2000/svg">
<path fill-rule="evenodd" clip-rule="evenodd" d="M373.222 117.805C385.472 126.555 402.381 132.968 418.129 132.968C427.464 132.968 443.213 132.968 440.875 115.475C438.545 97.9732 374.968 100.895 378.467 50.736C379.051 39.6553 384.295 29.1589 394.799 22.7383C405.88 16.3251 419.882 13.4033 433.293 13.4033C445.543 13.4033 457.792 14.572 469.457 18.0708V54.8191C463.044 48.9829 447.288 40.8166 436.792 38.4865C428.626 36.7409 415.799 39.6553 413.462 47.8216C411.716 57.1566 422.212 65.3154 429.794 68.2373C440.291 72.3204 453.125 75.8192 461.875 82.2398C472.372 90.4061 477.623 99.1494 478.208 110.814C478.792 123.641 476.462 135.313 466.543 144.641C456.046 155.722 439.714 160.389 423.966 160.389C409.97 160.389 395.384 158.059 381.973 153.392L373.222 117.805V117.805ZM780.338 131.223C787.328 133.553 802.5 134.137 810.666 134.137C822.915 134.137 835.749 131.223 846.83 123.641H847.999L834.581 158.052H739.514V157.467C748.849 147.555 747.096 141.135 747.096 131.223V45.4841C746.504 41.9853 750.003 24.4914 739.514 19.2395V18.6552H814.165L843.331 18.0708V50.7286H842.739C836.918 41.9779 818.832 43.1466 794.341 43.1466H780.338V72.3056H838.664V103.218H838.072C834.573 95.6358 811.835 96.7971 794.918 96.7971H780.338V131.223V131.223ZM1248.1 140.558C1250.42 153.384 1253.34 155.722 1255.68 157.467V158.052H1202.6V157.467C1207.84 149.893 1209.6 146.394 1210.76 136.475V95.6432L1169.35 33.819C1165.26 27.4058 1161.77 22.1539 1155.35 19.2395V18.6552H1202.02L1232.92 66.4768L1257.42 31.4815L1259.75 26.8141C1260.91 21.5696 1260.34 21.5696 1258 19.2321V18.6552H1300L1296.5 23.8997L1248.09 95.6358V140.558H1248.1V140.558ZM673.008 133.553C673.6 144.634 675.93 148.132 682.343 157.46V158.044H633.352V157.46C638.597 148.125 639.766 141.127 639.766 130.631V45.4841C639.766 35.5721 639.766 26.8214 630.431 19.2395V18.6552H724.336L734.248 18.0708V50.7286H733.671C727.834 41.9779 715.585 43.1466 704.504 43.1466H673.008V72.3056H730.179V103.802H729.011C726.089 96.2201 685.265 96.8045 677.098 96.8045H673.008V133.553V133.553Z" fill="#5C607C"/>
<path fill-rule="evenodd" clip-rule="evenodd" d="M521.369 111.391L511.457 132.969C510.289 137.052 507.959 142.888 507.959 146.971C507.959 152.223 505.628 154.553 509.712 157.467V158.052H466.55V157.467C474.716 151.054 475.878 145.225 479.961 135.89L519.039 44.8998C520.208 41.401 523.122 32.6504 523.122 29.1516C523.122 23.9071 524.284 21.5697 519.624 19.2396V18.6553H572.113L617.604 130.638C621.103 139.389 625.771 153.969 630.431 157.467V158.052H584.939V157.467C590.768 153.969 587.854 146.971 587.269 145.225L584.939 138.805L573.274 111.391H521.369V111.391ZM547.621 48.3986L531.873 85.7239H562.785L547.621 48.3986ZM1018.3 155.714L1019.47 158.044H971.632C972.224 156.299 972.801 155.123 971.632 146.387L951.808 65.8925L930.224 153.377V156.299L930.801 158.044H885.309C885.309 152.792 887.07 152.793 884.732 139.382L857.903 44.8924C854.981 36.7261 854.404 26.8141 847.991 19.2322V18.6553H889.977L888.231 22.1541V26.2372L910.984 113.145L929.055 45.4916C930.224 41.4084 932.554 33.8265 932.554 30.3277C932.554 24.4989 934.314 23.3301 930.808 19.247V18.6553H975.146V19.2396C974.554 19.824 974.554 20.9927 974.554 22.1541C974.554 29.736 976.3 34.9878 976.892 37.9023L999.053 113.722L1013.63 55.9805L1015.96 48.3986L1020.05 30.3203C1020.05 30.3203 1022.38 23.3227 1019.47 19.2396V18.6553H1056.79L1055.04 21.5697L1053.3 25.0685L1018.31 152.8V155.714H1018.3V155.714ZM1085.38 111.391L1075.45 132.969C1074.3 137.052 1071.95 142.888 1071.95 146.971C1071.95 152.223 1069.63 154.553 1073.7 157.467V158.052H1030.54V157.467C1038.71 151.054 1039.88 145.225 1043.95 135.89L1083.02 45.4842C1084.19 41.401 1087.11 33.2348 1087.11 29.1516C1087.11 23.9071 1088.27 21.5697 1083.62 19.2396V18.6553H1136.1L1181.6 131.223C1185.09 139.389 1189.76 154.553 1194.42 157.467V158.052H1148.93V157.467C1154.77 153.969 1151.85 146.971 1151.27 145.225L1148.93 138.805L1137.27 111.391H1085.38V111.391ZM1111.61 48.3986L1095.86 85.7239H1126.78L1111.61 48.3986V48.3986ZM402.388 270.035C402.388 270.035 406.472 265.944 407.056 260.116C407.64 254.864 407.056 193.624 407.056 193.624C407.056 193.624 407.056 186.634 402.388 183.128H470.633V203.543C469.464 202.375 468.303 198.876 461.298 198.876H429.217V215.208H464.797V236.201C464.797 236.201 458.961 232.702 454.301 232.118H429.802V259.531C429.802 259.531 429.802 264.783 433.885 270.035H402.388V270.035ZM694.015 190.133C693.424 187.211 691.093 184.296 688.756 183.135H717.345C731.925 184.296 743.583 182.551 755.255 190.717C767.505 198.883 773.326 212.878 773.326 227.458C773.326 240.292 769.827 253.702 758.746 262.453C748.243 271.204 732.495 270.619 717.338 270.619L687.595 270.042C694.008 265.952 694.585 258.377 694.585 251.38C694.592 251.372 694.592 194.216 694.015 190.133V190.133ZM716.754 257.786C719.676 258.947 722.013 257.786 724.336 257.786C733.094 257.786 742.421 253.695 747.089 246.12C750.588 240.292 751.742 236.201 751.165 226.873C751.165 211.702 744.174 196.538 727.834 196.538C724.913 196.538 720.267 195.37 717.345 195.954L716.754 257.786ZM1017.13 271.204C1022.97 267.121 1022.97 263.037 1022.97 263.037V192.47C1022.97 192.47 1022.97 186.057 1017.13 183.719C1017.13 183.719 1057.96 183.135 1064.38 184.296C1070.79 186.049 1085.38 188.387 1087.13 204.135C1088.28 215.216 1085.38 224.551 1067.87 230.964C1067.87 230.964 1092.95 270.619 1102.28 271.796C1102.28 271.796 1077.79 277.624 1067.29 263.629C1057.96 250.803 1049.8 235.055 1049.8 235.055H1043.96V263.045C1043.96 263.045 1043.38 267.135 1050.37 271.211H1017.13V271.204V271.204ZM1055.04 196.546H1044.55V225.12C1044.55 225.12 1049.22 226.289 1055.04 225.12C1060.88 223.959 1067.29 221.037 1067.29 209.372C1067.29 197.714 1055.04 196.546 1055.04 196.546ZM1267.34 269.451C1258.6 271.781 1248.68 273.534 1238.77 273.534C1210.77 273.534 1188.61 257.201 1188.61 227.458C1188.61 198.883 1210.19 181.966 1238.19 181.966C1245.18 181.966 1252.19 182.551 1259.18 184.888V202.382C1254.52 197.722 1245.78 195.384 1238.77 195.384C1221.27 195.384 1212.52 207.634 1212.52 223.966C1212.52 240.876 1217.18 258.377 1235.27 258.954C1237.01 259.539 1244.6 259.539 1246.35 258.954V239.123C1246.35 233.294 1245.77 229.204 1240.51 225.712H1267.34V269.451ZM1096.46 184.296C1101.7 188.387 1101.12 191.878 1101.12 191.878C1101.12 191.878 1100.53 244.375 1101.12 249.042C1102.28 260.123 1112.78 273.541 1139.61 273.541C1163.52 273.541 1172.85 261.292 1175.2 249.627C1176.35 246.128 1175.77 192.47 1175.77 192.47C1175.77 192.47 1175.2 187.218 1181.61 184.304H1147.78C1153.61 186.641 1153.61 192.47 1153.61 192.47V248.458C1153.61 248.458 1153.61 262.46 1139.61 262.46C1125.03 263.037 1124.44 248.458 1124.44 248.458V192.47C1124.44 192.47 1123.29 187.218 1129.11 184.304H1096.46V184.296V184.296ZM898.158 263.03C898.158 263.03 887.654 275.279 874.828 265.952C866.654 259.539 869.568 261.284 869.568 261.284C869.568 261.284 863.155 268.866 851.497 270.619C839.248 272.365 831.659 269.458 826.999 267.121C821.754 264.791 812.996 259.539 812.996 244.959C812.996 230.372 828.744 222.213 832.835 221.045C832.835 221.045 824.077 212.878 824.077 201.213C824.077 186.049 842.739 183.135 843.916 183.135C848.006 182.551 868.414 181.966 868.414 201.213C868.414 215.216 853.82 221.045 853.82 221.045C853.82 221.045 859.079 228.042 861.402 230.38L870.737 239.715C870.737 239.715 874.236 230.964 870.737 222.798C870.737 222.798 880.072 229.795 882.41 230.964C882.41 230.964 882.987 236.793 878.896 246.712L898.158 263.03V263.03ZM854.989 208.211C858.488 203.543 858.488 199.46 857.911 197.715C856.165 193.04 853.243 191.878 849.744 191.878C846.823 191.294 840.986 194.208 840.986 200.629C841.578 207.626 847.4 214.04 847.4 214.04C847.4 214.04 852.659 210.548 854.989 208.211V208.211ZM849.744 242.037C845.654 237.954 838.664 229.788 838.664 229.788C833.404 235.624 828.737 243.199 834.573 252.534C840.986 261.869 855.566 260.7 862.571 254.864L849.744 242.037ZM630.438 180.798C658.436 178.468 679.428 193.04 681.766 222.79C684.089 251.949 663.695 270.619 636.851 272.949C608.854 275.279 587.277 258.947 584.947 230.957C582.609 202.375 603.025 183.128 630.438 180.798V180.798ZM618.189 249.619C622.272 255.456 629.269 260.123 636.851 259.539C644.433 258.954 650.269 254.871 654.353 248.458C657.851 243.206 657.851 236.208 657.26 229.204C656.106 214.04 648.516 193.04 629.854 194.216C614.105 195.961 608.277 211.71 609.438 225.128C610.022 233.294 613.529 243.206 618.189 249.619V249.619ZM523.122 181.382C551.113 179.052 572.113 193.624 574.443 223.375C577.365 252.534 556.949 271.204 529.536 273.534C502.122 275.864 479.961 259.531 477.623 231.534C475.293 202.959 496.293 183.719 523.122 181.382ZM510.873 249.619C514.956 256.04 522.538 260.707 530.127 260.123C537.125 259.539 542.954 254.871 547.037 249.042C550.536 243.206 551.12 236.209 550.536 229.788C548.79 214.624 541.208 193.04 522.538 194.8C506.79 195.961 501.545 211.71 502.707 225.712C503.291 233.294 506.79 243.79 510.873 249.619ZM930.231 189.548C930.231 187.218 927.894 183.719 924.987 182.551H953.561C968.141 184.296 979.799 181.966 992.048 190.133C1003.72 198.883 1009.54 212.294 1009.54 226.881C1009.54 239.707 1006.04 253.125 994.962 262.46C984.459 271.211 968.71 270.042 953.554 270.042L923.811 269.458C930.224 265.367 931.393 257.793 931.393 251.38C931.4 251.372 931.4 193.624 930.231 189.548V189.548ZM953.561 257.201C955.884 257.786 958.806 257.201 961.143 257.201C969.309 257.201 978.637 253.118 982.713 245.536C986.226 239.123 987.38 235.624 987.38 226.289C986.803 211.702 980.39 196.546 964.05 196.546C961.143 196.546 957.06 195.377 953.561 195.377V257.201Z" fill="#5C607C"/>
<path fill-rule="evenodd" clip-rule="evenodd" d="M6.36781 71.1518C-2.38285 117.228 -0.629756 161.558 2.86163 206.458C4.61472 232.125 15.6954 257.201 39.6099 270.619C68.7689 286.952 100.265 289.866 132.346 291.619C191.256 293.949 276.41 293.365 309.652 278.209C319.572 273.541 343.486 260.13 351.652 243.798C358.65 230.387 363.318 215.8 364.479 200.052C369.146 157.475 369.731 116.651 362.149 74.0736C360.403 62.4085 357.481 52.4965 351.068 43.1615C338.819 24.4989 320.156 15.7482 299.74 10.4963C275.663 3.83164 251.578 0.932022 227.501 0H186.004C148.094 0.584363 111.346 7.93612e-06 72.8521 9.33502C41.3556 16.9096 12.781 36.7335 6.36781 71.1518V71.1518Z" fill="#5C607C"/>
<path fill-rule="evenodd" clip-rule="evenodd" d="M106.102 279.947C85.1089 275.864 61.1944 274.118 44.8618 257.201C30.2823 242.037 26.1992 221.622 23.8691 201.798C20.3703 167.387 20.3703 133.553 22.7004 99.7263C25.0304 74.0661 27.3679 46.0684 50.698 29.7358C83.3632 7.57442 123.019 7.57446 159.767 7.57446C127.102 9.90452 88.6151 13.4033 68.7837 44.8997C54.7812 67.6455 54.2042 92.7287 53.0355 117.22C51.8668 159.213 48.9523 202.959 67.038 242.614C74.6199 258.37 89.1994 268.866 106.116 275.279V279.947H106.102V279.947ZM251.327 9.32016C278.74 12.2346 310.237 15.1564 328.899 38.4792C337.066 49.5599 341.149 61.2249 342.894 74.6431C350.476 126.555 352.229 177.299 339.396 228.619C334.728 247.274 321.317 261.277 303.816 268.859C286.899 276.441 257.156 284.023 207.581 282.861C236.74 281.693 271.151 277.609 293.32 254.864C300.902 247.282 305.569 237.954 307.899 227.45C320.726 176.13 318.98 94.467 304.985 55.9804C296.819 32.0659 275.241 16.9021 251.911 13.4033L251.327 9.32016V9.32016Z" fill="#5C607C"/>
<path fill-rule="evenodd" clip-rule="evenodd" d="M120.097 281.123C150.432 284.622 163.843 284.622 192.425 280.539C202.921 279.37 212.256 274.702 220.999 269.458C246.082 254.871 260.078 229.211 261.831 201.213C264.745 151.054 223.337 125.394 190.095 89.8142C186.011 85.1467 182.513 79.9022 180.76 74.066C177.261 64.154 177.261 50.7359 181.928 41.4008C192.425 19.232 220.422 11.0658 243.168 13.4032V11.6575C237.916 11.6575 228.004 11.0732 215.755 11.6575C226.835 10.4888 236.17 11.6575 241.415 11.6575C241.999 11.0732 241.999 9.91183 241.999 9.91183C212.84 6.99001 200.007 6.41303 172.593 11.0731C163.258 12.8262 153.346 16.9094 144.019 22.1539C118.935 36.7407 104.94 62.9853 103.187 90.3986C100.265 141.142 141.681 166.225 174.923 202.382C179.21 206.724 182.581 211.883 184.835 217.553C187.75 227.465 188.334 240.876 183.667 250.211C172.586 272.372 144.588 280.546 122.427 278.785C121.842 278.785 120.681 278.785 120.097 278.208V281.123V281.123Z" fill="white"/>
</svg>
